# xmcd
#
# Track frame offsets:
#	183
#	4180
#	15478
#	22263
#	29015
#	34633
#	39108
#	49740
#	57848
#	67913
#	74763
#	80890
#	89788
#	98623
#	105228
#	111308
#	118983
#	126668
#	135593
#	137825
#	145573
#	151095
#	155463
#	159383
#	167135
#	172718
#	181623
#	186595
#	194330
#	198753
#	207580
#	212548
#	218620
#	226345
#	235203
#	245098
#	254473
#	261088
#	270455
#	282570
#	294010
#	301353
#	308123
#	316630
#
# Disc length: 4310 seconds
#
# Revision: 3
# Processed by: cddbd v1.5.2PL0 Copyright (c) Steve Scherf et al.
# Submitted via: EZCDAudioConverter 1.0.3.1
#
DISCID=7410d42c
DTITLE=Various Artist - Movin Mellow
DYEAR=1994
DGENRE=Club
TTITLE0=Intro - Intro
TTITLE1=Massimo Feat. O. Jay - Take me away
TTITLE2=The Klubb Kidz - Come On
TTITLE3=Morels Groove Part 4 - Bouncing Sax
TTITLE4=Direct To Disc - Morning
TTITLE5=Peelo - Reach Out
TTITLE6=Country and Western - Positive Energy
TTITLE7=Pancake - Don't Turn Your Back On Me
TTITLE8=Ransom - My Dance
TTITLE9=Black Rythm Vol. 2 - Blow Your Whistle
TTITLE10=X-Press 2 - Say What!
TTITLE11=Essence Of Sound E.P. - Groove To Me
TTITLE12=Sil - Villa Ducato
TTITLE13=René Et Gaston - Vallee De Larmes
TTITLE14=Roc and Kato - Jungle Kisses
TTITLE15=Miss Bliss - Best Thang
TTITLE16=M.K. Feat. Alana - Love Changes
TTITLE17=Wildtrax Vol. 3 part 1 - Let Me Tell You
TTITLE18=P.J. - Luv Will Make It Right
TTITLE19=Trancemission - Keep This Party Slammin'
TTITLE20=Chuck Phulasol - Feel Allright
TTITLE21=Outthere Brothers - Fuk U In The Ass
TTITLE22=Harddrive - Deep Inside
TTITLE23=Liquid Bass Vol. 1 - Signal A.D.
TTITLE24=K. Hand - Rodeo
TTITLE25=Laurent Garnier - Wake Up
TTITLE26=Pizzaman - Babyloop
TTITLE27=Sjef Van Leeuwen - Voices Of K.A.
TTITLE28=Techno Grooves Mach 8 - Throttle 100%
TTITLE29=Hall Of Jambo - Work Your Body
TTITLE30=D.J. Creator - Kiss Me
TTITLE31=DJ Duke - Partytime
TTITLE32=Beatfreak - Looptrick
TTITLE33=Naomi Daniel EP - Burning
TTITLE34=Eric Nouhan - Palmyra
TTITLE35=Virtual Reality - Free Life
TTITLE36=Outrage - Theme From Outrage
TTITLE37=Cotillion Soft Drinks EP - Orange
TTITLE38=Thyone Girls - Keep On Pumpin'
TTITLE39=Positive Energy - Non Stop
TTITLE40=Cafe d'Amsterdam - Keep Going
TTITLE41=Mijk's Magic Marble Box - Spring
TTITLE42=Staxx - Joy
TTITLE43=Outro - Outro
EXTD=
EXTT0=
EXTT1=
EXTT2=
EXTT3=
EXTT4=
EXTT5=
EXTT6=
EXTT7=
EXTT8=
EXTT9=
EXTT10=
EXTT11=
EXTT12=
EXTT13=
EXTT14=
EXTT15=
EXTT16=
EXTT17=
EXTT18=
EXTT19=
EXTT20=
EXTT21=
EXTT22=
EXTT23=
EXTT24=
EXTT25=
EXTT26=
EXTT27=
EXTT28=
EXTT29=
EXTT30=
EXTT31=
EXTT32=
EXTT33=
EXTT34=
EXTT35=
EXTT36=
EXTT37=
EXTT38=
EXTT39=
EXTT40=
EXTT41=
EXTT42=
EXTT43=
PLAYORDER=
